HIERARCHY
ROOT pelvis
{
  OFFSET 0 100 0
  CHANNELS 6 Xposition Yposition Zposition Zrotation Xrotation Yrotation
  JOINT pelvis_right_femur
  {
    OFFSET -10.78128 -3.44521 -0.5502486
    CHANNELS 3 Zrotation Xrotation Yrotation
    JOINT right_femur_tibia
    {
      OFFSET -0.8047443 -44.0398 -0.1307829
      CHANNELS 3 Zrotation Xrotation Yrotation
      JOINT right_tibia_foot
      {
        OFFSET 3.006224 -47.83518 -5
        CHANNELS 3 Zrotation Xrotation Yrotation
        End Site
        {
          OFFSET 0 -5 15
        }
      }
    }
  }
  JOINT pelvis_left_femur
  {
    OFFSET 10.78128 -3.44521 -0.5502486
    CHANNELS 3 Zrotation Xrotation Yrotation
    JOINT left_femur_tibia
    {
      OFFSET 0.8047443 -44.0398 -0.1307829
      CHANNELS 3 Zrotation Xrotation Yrotation
      JOINT left_tibia_foot
      {
        OFFSET -4.370144 -48.10324 -4.275266
        CHANNELS 3 Zrotation Xrotation Yrotation
        End Site
        {
          OFFSET 0 -5 15
        }
      }
    }
  }
  JOINT pelvis_spine1
  {
    OFFSET 0 6.468898 -3.129235
    CHANNELS 3 Zrotation Xrotation Yrotation
    JOINT spine1
    {
      OFFSET 0 23.15396 4.99043
      CHANNELS 3 Zrotation Xrotation Yrotation
      JOINT spine2
      {
        OFFSET 0 20.79997 -5.064912
        CHANNELS 3 Zrotation Xrotation Yrotation
        JOINT neck
        {
          OFFSET 0 14.38658 9.616178
          CHANNELS 3 Zrotation Xrotation Yrotation
          End Site
          {
            OFFSET 0 20 0
          }
        }
      }
      JOINT right_manubrium
      {
        OFFSET -5.722621 16.35077 3.967754
        CHANNELS 3 Zrotation Xrotation Yrotation
        JOINT right_clavicle
        {
          OFFSET -13.16364 1.694482 -4.693211
          CHANNELS 3 Zrotation Xrotation Yrotation
          JOINT right_humerus
          {
            OFFSET -28.5034 -0.3100689 -2.792744
            CHANNELS 3 Zrotation Xrotation Yrotation
            JOINT right_radius
            {
              OFFSET -25.15693 0.02248979 -1.271978
              CHANNELS 3 Zrotation Xrotation Yrotation
              End Site
              {
                OFFSET -15 0 0
              }
            }
          }
        }
      }
      JOINT left_manubrium
      {
        OFFSET 5.722621 16.35077 3.967754
        CHANNELS 3 Zrotation Xrotation Yrotation
        JOINT left_clavicle
        {
          OFFSET 13.16364 1.694482 -4.693211
          CHANNELS 3 Zrotation Xrotation Yrotation
          JOINT left_humerus
          {
            OFFSET 29.39168 -1.063119 -2.237045
            CHANNELS 3 Zrotation Xrotation Yrotation
            JOINT left_radius
            {
              OFFSET 24.59957 -0.9528479 0.9047498
              CHANNELS 3 Zrotation Xrotation Yrotation
              End Site
              {
                OFFSET 15 -0 -0
              }
            }
          }
        }
      }
    }
  }
}
MOTION
Frames: 19
Frame Time: 0.0416666666667
27.40064 101.7801 249.0361 -0.3261381 -2.187131 0.1580244 4.436907 14.33339 7.062562 -0 18.0736 -0 -2.029789 -13.34039 -4.823334 2.145651 -29.58571 -1.278521 -0 23.25846 -0 -6.509596 -7.482401 19.71003 2.957255 -4.709906 9.434597 -3.046905 8.556278 -2.286345 0.1578701 20.47099 6.976829 3.412353 -13.39611 4.627928 -0.6559159 -24.37768 11.98511 81.75953 20.80503 -7.472921 -0 0 23.77149 -25.29736 9.079626 13.60144 3.952478 -17.17483 -3.481324 -93.12986 21.65273 26.57881 0 0 -12.3085 -3.329341 5.929427 15.53775
28.41647 101.3726 256.3902 -0.3678437 -2.380329 -0.5552223 4.159236 14.45341 7.47936 -0 24.71688 -0 -0.09182743 -10.38978 -4.33219 0.7868415 -29.08476 -2.930693 -0 24.22927 -0 -6.602123 -6.797091 19.5337 2.912879 -5.973329 9.696099 -3.0248 8.453527 -2.176487 0.2349339 20.6344 7.026734 3.345302 -13.5254 4.837425 -0.8165342 -23.60767 11.59941 82.62086 20.38738 -8.150363 -0 0 23.81825 -25.34844 9.136266 13.66659 3.944705 -16.07597 -3.466144 -93.6507 21.78762 27.13569 0 0 -10.99631 -3.936359 5.863142 16.4118
29.58871 101.5284 263.4436 -0.3607914 -2.358196 -0.4823356 3.856994 13.55014 7.634099 -0 32.61091 -0 1.518183 -6.594075 -3.974179 -0.4582629 -26.54596 -4.39704 -0 26.4308 -0 -6.42611 -7.201565 19.29084 2.853344 -7.127831 9.573213 -3.022257 8.391963 -2.171984 0.3685195 20.88162 7.017993 3.297908 -13.75237 5.041992 -0.7702686 -22.55855 11.31272 83.7357 20.16623 -9.376126 -0 0 23.01484 -25.11469 9.279717 13.45303 3.945426 -15.43672 -3.441297 -93.56967 22.00799 26.925 0 0 -10.36108 -4.337275 5.860289 16.8887
30.53279 102.1246 270.1002 -0.3147872 -2.15351 0.2647436 3.633277 10.3614 7.881377 -0 41.48906 -0 2.189317 -4.584083 -3.877716 -1.578954 -23.65997 -5.618521 -0 27.8343 -0 -5.855985 -8.721947 18.93769 2.594625 -8.037777 9.141687 -2.957858 8.41963 -2.228868 0.4981438 21.29541 6.978002 3.228443 -14.10094 5.248109 -0.2778724 -21.49447 11.18744 84.95424 20.12275 -10.82901 -0 0 21.53491 -24.59622 9.508509 13.00357 3.97493 -15.3387 -3.448076 -92.6826 22.35579 25.87893 0 0 -10.3642 -4.471154 5.937365 16.93206
31.41753 103.1622 276.3923 -0.2968857 -2.06479 0.5902078 3.752262 3.146279 7.687907 -0 48.9092 -0 2.609951 -5.600586 -4.986437 -2.261353 -19.87196 -6.340849 -0 28.01496 -0 -5.300691 -10.51743 18.52249 2.338076 -8.812813 8.531964 -2.817628 8.4819 -2.248888 0.4640064 21.56647 7.112938 3.086028 -14.55855 5.530949 0.6527381 -20.45119 11.23731 86.22949 20.19813 -12.42511 -0 0 19.63833 -23.84556 9.793367 12.39944 3.875381 -15.49864 -3.526325 -91.4028 22.74253 24.21828 0 0 -10.72332 -4.431432 6.07949 16.71702
32.15686 104.2143 282.0511 -0.2828581 -1.984868 0.8762623 3.529097 -3.896551 7.212548 -0 53.8328 -0 3.203474 -6.612049 -6.70505 -2.542179 -15.62544 -6.685462 -0 26.83745 -0 -4.949998 -12.13646 17.89299 1.944674 -9.104288 7.587694 -2.637026 8.479005 -2.508502 0.5103484 22.00564 7.278467 2.970771 -14.83668 5.937228 1.402382 -19.73481 11.26097 87.44805 20.32196 -13.74465 -0 0 18.08793 -23.00135 10.0619 11.85988 3.913669 -16.04578 -3.782062 -89.89794 23.13568 22.01841 0 0 -11.38378 -4.288194 6.281853 16.35149
32.86464 105.2431 287.2472 -0.2527246 -1.817988 1.472671 3.370686 -9.832059 6.409598 -0 55.09508 -0 4.041805 -6.729124 -8.441625 -2.732348 -11.14595 -6.852606 -0 24.46351 -0 -4.805002 -13.55984 17.00179 1.44167 -9.069038 6.26197 -2.349825 8.412053 -3.342144 0.664856 22.34743 7.389737 2.88265 -15.07776 6.379419 1.648659 -19.16438 11.04277 88.51821 20.36644 -14.94588 -0 0 17.08974 -22.21022 10.22678 11.46293 4.045691 -16.5635 -4.285119 -88.42628 23.51168 19.39922 0 0 -12.208 -4.156966 6.528956 15.89948
33.52205 105.9173 292.2457 -0.1813013 -1.414441 2.930905 3.371802 -16.56909 6.324782 -0 51.97545 -0 4.234338 -6.899283 -9.722316 -2.859115 -6.105061 -6.799919 -0 21.05414 -0 -4.786022 -14.99873 15.72962 0.7855666 -9.026348 4.78775 -1.951607 8.263074 -4.624126 0.8841253 22.5971 7.44508 2.817794 -15.29102 6.804129 1.390337 -18.52186 10.47825 89.366 20.27594 -16.25055 -0 0 16.42042 -21.46937 10.24482 11.14887 4.343446 -17.12279 -4.919444 -86.89192 23.87233 16.40952 0 0 -13.25056 -4.014934 6.83996 15.29372
34.18365 106.0345 297.4777 -0.1132969 -0.9747149 4.519806 3.129944 -22.26052 6.835711 -0 45.76849 -0 4.150588 -6.591651 -10.85915 -2.795552 -1.957921 -6.816486 -0 18.33159 -0 -4.841508 -16.39148 14.42664 0.1315765 -9.183335 3.523145 -1.394178 8.189336 -5.983577 1.215817 22.64872 7.355698 2.796635 -15.57995 7.139187 0.8383321 -17.64008 9.793218 90.04225 20.09699 -17.72662 -0 0 15.72654 -20.72608 10.14659 10.8089 4.782378 -17.55108 -5.556987 -85.39566 24.19448 13.34647 0 0 -14.40007 -3.845961 7.211677 14.55448
34.77051 105.555 303.0978 -0.05225386 -0.5054958 6.217223 2.285644 -27.06601 7.624949 -0 37.82167 -0 3.908909 -5.9302 -12.15356 -2.626839 1.960721 -6.757595 -0 16.46912 -0 -4.922283 -17.9071 13.20072 -0.7291412 -9.426596 2.334658 -0.7838169 8.218027 -7.40876 1.646781 22.77474 7.035643 2.83925 -15.79788 7.257161 0.2321086 -16.58168 9.115871 90.69963 19.90325 -19.26736 -0 0 14.68918 -19.85787 10.01038 10.26043 5.408133 -18.12083 -6.189364 -83.63159 24.46462 10.13274 0 0 -15.62453 -3.616249 7.635303 13.71102
35.28564 104.6199 308.3067 -0.006511486 -0.07112274 7.791328 1.178275 -31.92664 7.864565 -0 28.71301 -0 3.405067 -5.167269 -13.30122 -2.282608 5.175963 -6.744544 -0 15.56821 -0 -5.103716 -19.41573 12.07878 -0.944872 -9.412535 1.792935 -0.2363317 7.966159 -8.126454 1.993566 22.40258 6.907592 2.821945 -16.33414 7.539132 -0.08546823 -15.50999 8.896663 91.17068 19.80283 -20.80657 -0 0 12.99468 -18.73579 9.890707 9.343112 5.678852 -18.65875 -6.780365 -82.01594 24.59688 7.218153 0 0 -16.5097 -3.353469 8.033948 12.92806
35.76318 103.5222 313.5864 0.01226049 0.1414325 8.563761 0.4632284 -33.98519 7.362629 -0 21.23022 -0 2.545764 -5.255059 -13.71487 -1.97748 8.107585 -6.709695 -0 15.75634 -0 -5.458371 -20.62861 11.29238 -1.106797 -8.886913 1.455711 0.08944796 7.546159 -8.531884 2.349246 22.20154 6.645422 2.839873 -16.75779 7.638057 0.02856417 -14.84691 9.000953 91.45919 19.83179 -21.85478 -0 0 11.13576 -17.38274 9.858159 8.221853 5.630554 -19.76909 -7.263784 -80.129 24.52437 4.269142 0 0 -17.36125 -3.010216 8.506515 12.05739
36.15418 102.2525 319.0246 0.02269665 0.2689236 9.029234 0.8538521 -34.23763 5.943904 -0 15.1386 -0 1.821541 -5.800415 -14.36859 -1.608323 10.59699 -6.586814 -0 17.19535 -0 -6.020503 -21.13812 10.84075 -0.9779158 -8.456359 1.47907 0.3356772 7.266072 -8.562489 2.554736 21.99337 6.329133 2.804591 -17.13729 7.512433 0.3520309 -14.19354 9.241578 91.76945 19.9599 -22.69438 -0 0 8.977049 -15.77418 9.91221 6.912617 5.552676 -20.52686 -7.434768 -78.9274 24.33019 2.169478 0 0 -17.99031 -2.632019 8.971766 11.20864
36.29762 101.427 325.5146 0.04115739 0.5307896 9.98594 0.998132 -34.30652 5.406661 -0 16.12614 -0 1.740387 -4.737789 -14.89354 -0.8856789 12.52879 -6.631564 -0 20.04291 -0 -6.883585 -20.29854 10.73052 -1.074204 -9.081446 1.392974 0.4595313 7.250387 -8.732099 2.669402 22.13234 5.931995 2.765894 -17.35999 7.186283 0.7791386 -13.36794 9.090409 92.30898 19.99387 -23.41309 -0 0 7.038217 -14.33614 9.94336 5.739793 5.547386 -20.67257 -7.204281 -78.55929 24.1003 1.267754 0 0 -18.22797 -2.263653 9.432362 10.43672
36.58006 100.9501 332.0239 0.04736076 0.6250021 10.33263 2.365099 -32.25007 5.170315 -0 18.326 -0 1.477549 -4.134141 -15.12963 -0.4989859 13.24973 -6.674694 -0 25.048 -0 -7.951667 -17.88455 11.28952 -0.8523478 -9.406908 1.446985 0.3824853 7.359552 -8.762353 2.746621 22.45501 5.402122 2.729449 -17.45613 6.637155 0.9550314 -12.86951 9.058257 92.58228 20.06748 -23.40662 -0 0 5.757979 -13.19823 9.916679 4.858189 5.642648 -20.53604 -6.777119 -78.94634 23.88813 1.217167 0 0 -18.19364 -1.962004 9.891173 9.749262
36.90436 101.2875 338.4458 0.03839898 0.470861 9.772409 3.270781 -30.25935 5.341347 -0 21.19397 -0 1.088038 -4.141265 -14.95012 -0.6660593 12.38499 -6.422255 -0 32.5102 -0 -9.056125 -14.06963 12.61859 -0.4246019 -9.593857 1.782144 0.1540212 7.350436 -8.514442 2.977199 22.78342 4.894386 2.775928 -17.64461 6.258864 0.9815606 -12.96317 9.225962 92.33203 20.24166 -22.44667 -0 0 5.281183 -12.38747 9.831279 4.255723 5.545637 -19.95643 -6.325671 -80.07684 23.75643 2.123871 0 0 -17.55796 -1.867432 10.31747 9.277619
36.85897 101.7212 345.7769 0.03482478 0.41426 9.567514 4.598167 -28.09114 7.205662 -0 24.87295 -0 0.2216033 -5.368594 -14.64199 -0.4111869 9.171576 -6.218137 -0 41.70653 -0 -9.4798 -10.87159 14.80377 -0.4634844 -11.04871 2.38173 0.1432821 7.768458 -8.061347 3.197472 23.28367 4.472817 2.812747 -17.84457 6.007487 1.005918 -12.19289 8.934859 92.48314 20.158 -22.07375 -0 0 4.761299 -11.81043 9.667608 3.810685 5.557703 -18.79368 -5.546361 -81.74454 23.71318 3.593079 0 0 -16.49043 -2.009355 10.74929 8.994838
36.96291 102.7278 352.6845 0.01937582 0.212626 8.829872 5.811432 -25.17002 9.212003 -0 27.6104 -0 -0.7145882 -6.985689 -14.10228 -0.3883142 3.35111 -5.749831 -0 50.46858 -0 -8.712675 -9.4751 17.69172 -0.423615 -11.99624 3.302113 0.2121484 8.102627 -7.392729 3.493288 23.85655 4.104989 2.875732 -18.11711 5.921044 1.238802 -11.99429 8.995895 91.88976 20.17597 -20.80795 -0 0 4.788963 -11.63339 9.419291 3.690194 5.269398 -17.75303 -4.966531 -83.56731 23.69069 5.368759 0 0 -14.86398 -2.344654 11.19407 8.921216
37.05034 103.8032 358.4639 0.00632872 0.0657545 8.291045 6.451438 -20.99536 10.45886 -0 27.6841 -0 -1.544861 -8.605263 -13.19697 -0.5764277 -3.298667 -4.900315 -0 56.02377 -0 -7.540698 -9.229299 20.59841 -0.2520488 -12.1146 4.562699 0.2769643 7.891445 -6.404151 3.862255 24.12905 3.802937 2.954085 -18.61175 6.018819 1.488557 -12.21204 9.514206 90.71384 20.22312 -18.68739 -0 0 5.45514 -11.86496 9.116613 3.939958 4.898523 -17.16752 -4.647076 -85.45269 23.67015 6.984359 0 0 -12.97044 -2.836841 11.63136 9.019931
